<mxfile host="app.diagrams.net" modified="2022-08-25T09:12:10.040Z" agent="5.0 (Windows NT 10.0; Win64; x64) AppleWebKit/537.36 (KHTML, like Gecko) Chrome/104.0.0.0 Safari/537.36" etag="SLrBZVS4PP9guAuAUxsf" version="20.2.7" type="github">
  <diagram id="C5RBs43oDa-KdzZeNtuy" name="Page-1">
    <mxGraphModel dx="1038" dy="539" grid="0" gridSize="10" guides="1" tooltips="1" connect="1" arrows="1" fold="1" page="1" pageScale="1" pageWidth="827" pageHeight="1169" math="0" shadow="0">
      <root>
        <mxCell id="WIyWlLk6GJQsqaUBKTNV-0" />
        <mxCell id="WIyWlLk6GJQsqaUBKTNV-1" parent="WIyWlLk6GJQsqaUBKTNV-0" />
        <mxCell id="TGyUULLUcQQw1tGc5YkL-0" value="USER" style="shape=umlActor;verticalLabelPosition=bottom;verticalAlign=top;html=1;outlineConnect=0;" parent="WIyWlLk6GJQsqaUBKTNV-1" vertex="1">
          <mxGeometry x="38" y="256" width="18" height="39" as="geometry" />
        </mxCell>
        <mxCell id="TGyUULLUcQQw1tGc5YkL-2" value="HIRECTO" style="text;html=1;align=center;verticalAlign=middle;resizable=0;points=[];autosize=1;strokeColor=none;fillColor=none;fontStyle=1;fontSize=21;" parent="WIyWlLk6GJQsqaUBKTNV-1" vertex="1">
          <mxGeometry x="354" y="16" width="112" height="37" as="geometry" />
        </mxCell>
        <mxCell id="aCniQN3QKN2nMsdBsUbV-1" style="edgeStyle=orthogonalEdgeStyle;rounded=0;orthogonalLoop=1;jettySize=auto;html=1;exitX=1;exitY=0.5;exitDx=0;exitDy=0;entryX=0;entryY=0.5;entryDx=0;entryDy=0;" edge="1" parent="WIyWlLk6GJQsqaUBKTNV-1" source="TGyUULLUcQQw1tGc5YkL-3" target="TGyUULLUcQQw1tGc5YkL-8">
          <mxGeometry relative="1" as="geometry" />
        </mxCell>
        <mxCell id="aCniQN3QKN2nMsdBsUbV-2" style="edgeStyle=orthogonalEdgeStyle;rounded=0;orthogonalLoop=1;jettySize=auto;html=1;exitX=1;exitY=0.75;exitDx=0;exitDy=0;entryX=0;entryY=0.25;entryDx=0;entryDy=0;" edge="1" parent="WIyWlLk6GJQsqaUBKTNV-1" source="TGyUULLUcQQw1tGc5YkL-3" target="TGyUULLUcQQw1tGc5YkL-9">
          <mxGeometry relative="1" as="geometry" />
        </mxCell>
        <mxCell id="TGyUULLUcQQw1tGc5YkL-3" value="HOME" style="swimlane;fontSize=21;" parent="WIyWlLk6GJQsqaUBKTNV-1" vertex="1">
          <mxGeometry x="109" y="225" width="150" height="151" as="geometry" />
        </mxCell>
        <mxCell id="TGyUULLUcQQw1tGc5YkL-8" value="LOGIN" style="swimlane;fontSize=17;" parent="WIyWlLk6GJQsqaUBKTNV-1" vertex="1">
          <mxGeometry x="312" y="101" width="149" height="138" as="geometry" />
        </mxCell>
        <mxCell id="TGyUULLUcQQw1tGc5YkL-9" value="SIGNUP" style="swimlane;fontSize=17;" parent="WIyWlLk6GJQsqaUBKTNV-1" vertex="1">
          <mxGeometry x="312" y="317" width="149" height="138" as="geometry" />
        </mxCell>
      </root>
    </mxGraphModel>
  </diagram>
</mxfile>
